<svg xmlns="http://www.w3.org/2000/svg" xmlns:xlink="http://www.w3.org/1999/xlink" width="305" height="49" viewBox="0 0 305 49">
  <defs>
    <polygon id="vr-logo-a" points="54.044 38.088 .068 38.088 .068 .122 54.044 .122"/>
    <polygon id="vr-logo-c" points=".068 38.088 .068 .122 54.044 .122 54.044 38.088"/>
    <polygon id="vr-logo-e" points=".016 36.983 .016 0 23.54 0 47.064 0 47.064 36.983"/>
    <polygon id="vr-logo-g" points=".016 0 23.54 0 47.064 0 47.064 36.983 .016 36.983"/>
  </defs>
  <g fill="none" fill-rule="evenodd">
    <path fill="#FFF" fill-rule="nonzero" d="M199.938373.332938324C197.470102.332938324 195.495486 2.26841257 195.495486 4.68680954 195.495486 7.06115703 197.470102 8.99555031 199.938373 8.99555031 202.362063 8.99555031 204.381533 7.06115703 204.381533 4.68680954 204.381533 2.26841257 202.362063.332938324 199.938373.332938324M231.502883 36.3159503L245.023191 36.3159503 245.023191 34.036728 242.416283 32.7857771 242.416283 16.6155681C243.389456 15.9088849 244.537963 15.6675586 245.774817 15.6675586 248.02861 15.6675586 249.088226 16.6063799 249.088226 19.199083L249.088226 32.7857771 246.481319 34.036728 246.481319 36.3159503 260.002714 36.3159503 260.002714 34.036728 257.307188 32.7857771 257.307188 17.3214406C257.307188 12.7175954 255.230361 10.6615931 251.120744 10.6615931 247.763298 10.6615931 244.492839 11.8684946 242.284171 13.9242266L242.284171 10.6615931 241.620619 10.6615931 231.369412 12.3154751 231.369412 14.5055174 234.197594 15.801869 234.197594 32.7857771 231.502883 34.036728 231.502883 36.3159503"/>
    <polyline fill="#FFF" fill-rule="nonzero" points="193.192 12.31 193.192 14.581 195.943 15.873 195.943 32.753 193.322 34 193.322 36.316 206.686 36.316 206.686 34 204.065 32.753 204.065 10.662 203.409 10.662 193.192 12.31"/>
    <path fill="#FFF" fill-rule="nonzero" d="M181.698721 12.0157765C180.681783 11.2980134 179.089639 10.891299 177.718498 10.891299 171.630187 10.891299 165.875419 14.4317413 165.875419 24.5698754 165.875419 34.2145474 171.671234 37.315576 175.552237 37.315576 178.647634 37.315576 180.770129 35.9249099 181.78734 34.5793743L182.05238 34.5793743 182.05238 37.2280175 182.760241 37.2280175 192.533561 36.060031 192.533561 34.2315726 189.924207 32.7514564 189.924207.666417132 189.260655.666417132 178.957527 2.32597415 178.957527 4.61438464 181.698721 5.86992965 181.698721 12.0157765zM181.672081 31.7850705C181.083556 32.284478 180.407772 32.6511965 179.186684 32.6511965 175.958632 32.6511965 174.432273 29.9630979 174.432273 23.7796874 174.432273 16.7012349 176.351163 14.3266171 178.924363 14.3266171 180.36455 14.3266171 181.083556 14.7884609 181.672081 15.4537971L181.672081 31.7850705zM147.444394 14.580915L150.171725 15.8729427 150.171725 32.7530778 147.575963 33.9999751 147.575963 36.3159503 161.739978 36.3159503 161.739978 33.9999751 158.352901 32.7530778 158.352901 19.5287784C159.8007 18.3759254 161.608681 18.0102878 163.807019 18.0102878 164.511074 18.0102878 165.390735 18.099738 165.875419 18.2335078L165.875419 10.9731823C165.610651 10.8842727 165.083289 10.8396827 164.643458 10.8396827 161.960165 10.8396827 159.497331 12.6216594 158.045183 15.9167219L158.045183 10.6615931 157.341671 10.6615931 147.444394 12.3098 147.444394 14.580915zM136.254537 31.2516125C135.788066 31.9504587 134.905143 32.3182582 134.034452 32.3182582 132.468133 32.3182582 130.988529 31.4334854 130.988529 28.6905277 130.988529 26.7328936 132.729095 24.9309189 134.634938 24.6347335L136.254537 24.3217931 136.254537 31.2516125zM129.96996 14.2798652C130.55332 14.0171899 131.754291 14.0044885 132.151444 14.0044885 135.328935 14.0044885 136.256439 15.6081054 136.256439 18.7696682L136.249915 21.5839699 131.543075 22.475769C126.725053 23.3732432 123.090062 24.849576 123.090062 29.9709349 123.090062 34.1123958 125.972611 36.9826377 129.899826 36.9826377 132.990058 36.9826377 135.903053 35.647101 137.006163 33.4197652L137.227709 33.4197652C137.624862 36.0921898 139.919973 36.9388584 142.480397 36.9388584 144.466159 36.9388584 146.386952 36.3148693 147.114929 35.4814425L147.114929 34.0437543 144.509652 32.7973975 144.509652 18.3245794C144.509652 12.713812 140.5384 10.6615931 133.916747 10.6615931 129.591292 10.6615931 126.764742 11.750669 124.471261 12.8532569L124.471261 19.1701671 128.311217 19.1701671 129.96996 14.2798652zM219.850089 31.2516125C219.384162 31.9504587 218.501239 32.3182582 217.630548 32.3182582 216.063685 32.3182582 214.584354 31.4334854 214.584354 28.6905277 214.584354 26.7328936 216.324648 24.9309189 218.231034 24.6347335L219.850089 24.3217931 219.850089 31.2516125zM213.565512 14.2798652C214.149144 14.0171899 215.350116 14.0044885 215.746725 14.0044885 218.924759 14.0044885 219.85172 15.6081054 219.85172 18.7696682L219.845468 21.5839699 215.138356 22.475769C210.320606 23.3732432 206.685615 24.849576 206.685615 29.9709349 206.685615 34.1123958 209.567892 36.9826377 213.495107 36.9826377 216.585882 36.9826377 219.498877 35.647101 220.601716 33.4197652L220.823534 33.4197652C221.220686 36.0921898 223.515798 36.9388584 226.075949 36.9388584 228.061983 36.9388584 229.981961 36.3148693 230.711025 35.4814425L230.711025 34.0437543 228.105749 32.7973975 228.105749 18.3245794C228.105749 12.713812 224.133953 10.6615931 217.513115 10.6615931 213.186845 10.6615931 210.360294 11.750669 208.066814 12.8532569L208.066814 19.1701671 211.906769 19.1701671 213.565512 14.2798652z"/>
    <g transform="translate(69.046 10.54)">
      <mask id="vr-logo-b" fill="#fff">
        <use xlink:href="#vr-logo-a"/>
      </mask>
      <path fill="#FFF" fill-rule="nonzero" d="M28.5123351,18.4751043 C28.5123351,22.8176253 30.6255882,26.443194 35.5993717,26.443194 C38.90082,26.443194 41.8062032,24.9663206 43.391279,22.9965256 L43.391279,26.4018469 L44.0507531,26.4018469 L54.0437166,25.1900811 L54.0437166,23.3654062 L51.269902,21.8885328 L51.269902,0.12214945 L50.610156,0.12214945 L40.3535116,1.7787338 L40.3535116,4.06092873 L43.0824733,5.35971248 L43.0824733,20.394364 C42.1688324,21.0086244 41.5419786,21.2931894 40.0966266,21.2931894 C38.0279545,21.2931894 36.6997638,20.6686598 36.6997638,17.8043633 L36.6997638,0.12214945 L35.9957086,0.12214945 L25.739336,1.7787338 L25.739336,4.06092873 L28.5123351,5.35971248 L28.5123351,18.4751043" mask="url(#vr-logo-b)"/>
      <g>
        <mask id="vr-logo-d" fill="#fff">
          <use xlink:href="#vr-logo-c"/>
        </mask>
        <path fill="#FFF" fill-rule="nonzero" d="M12.7385071,34.10591 C8.20863191,34.10591 6.58006239,32.3552814 6.65318627,30.6303258 C6.70157308,29.444233 7.29444742,27.9103386 9.4210205,27.775758 L16.4811453,27.775758 C18.523721,27.775758 19.8152139,29.1772338 19.8152139,30.4525064 C19.8152139,33.0017006 17.8900713,34.10591 12.7385071,34.10591 M12.8823084,3.1207563 C14.6530481,3.1207563 15.8659804,4.40170407 15.8659804,8.89637144 C15.8659804,13.5077834 14.610098,14.4484963 12.8823084,14.4484963 C11.1545187,14.4484963 9.94185829,13.5077834 9.94185829,8.89637144 C9.94185829,4.17280897 11.1545187,3.1207563 12.8823084,3.1207563 M18.2521569,20.3827436 L9.44630125,20.3827436 C8.47774955,20.3827436 7.68534759,19.6684936 7.68534759,18.7764243 C7.68534759,18.1073047 8.16948752,17.3930547 8.78573975,16.9471552 C10.1065909,17.348735 11.2075267,17.4373745 12.8363681,17.4373745 C19.1766711,17.4373745 23.5355615,14.5376762 23.5355615,9.09364821 C23.5355615,6.63930904 22.5229724,5.25620974 20.981934,3.82825024 L25.1562478,5.14757239 L25.1646747,0.169441825 L18.5161096,1.41931175 C16.9753431,0.838291136 14.8180526,0.12214945 12.8363681,0.12214945 C6.49606506,0.12214945 2.09340909,3.42667041 2.09340909,8.82583824 C2.09340909,12.1281973 3.72279412,14.5814555 6.18861854,15.9653655 L6.38488414,16.0894066 C4.97622995,17.0711964 2.04937166,19.311774 2.04937166,21.944473 C2.04937166,23.9080524 3.32645722,25.8265014 5.9678877,26.4067113 L5.9678877,26.4134673 C3.19407308,26.9936772 0.0682308378,28.1911202 0.0682308378,31.4488892 C0.0682308378,34.7952977 4.82345811,38.1041426 12.5724153,38.1041426 C22.2147103,38.1041426 26.397451,33.5011081 26.397451,27.5663203 C26.397451,22.6581825 23.7119831,20.3827436 18.2521569,20.3827436" mask="url(#vr-logo-d)"/>
      </g>
    </g>
    <path fill="#FFF" fill-rule="nonzero" d="M57.391377,13.3267212 C59.4426515,13.3267212 60.557451,14.795217 60.557451,20.927822 L53.6460205,21.3231863 C53.7392602,15.0597841 55.1174688,13.3267212 57.391377,13.3267212 Z M68.4564617,24.5820363 C68.4564617,14.0996137 63.8814617,10.6615931 57.5297415,10.6615931 C50.2015865,10.6615931 45.4183601,15.5267625 45.4183601,23.7794171 C45.4183601,32.2544811 49.7625713,36.9826377 58.1884002,36.9826377 C62.7082175,36.9826377 66.2706283,34.56343 67.4115241,32.9579214 L67.5349376,30.916242 C65.8231863,31.4515917 64.068213,31.7639916 60.9527005,31.7639916 C56.476377,31.7639916 53.7952585,29.4385579 53.7998797,24.5820363 L68.4564617,24.5820363 Z"/>
    <mask id="vr-logo-f" fill="#fff">
      <use xlink:href="#vr-logo-e"/>
    </mask>
    <path fill="#FFF" fill-rule="nonzero" d="M18.5634091,36.3159503 L32.0842602,36.3159503 L32.0842602,34.037809 L29.4773529,32.7873986 L29.4716444,16.6631307 C30.4586809,15.974824 31.5854412,15.6048625 32.8233824,15.6048625 C35.0763592,15.6048625 36.1911586,17.0425507 36.1492959,19.2082712 L36.1492959,32.7873986 L33.5421168,34.037809 L33.5421168,36.3159503 L47.0637834,36.3159503 L47.0637834,34.037809 L44.3685294,32.7873986 L44.3685294,17.33198 C44.3685294,12.730567 41.7436809,10.6756457 38.1820856,10.6756457 C34.8238235,10.6756457 31.5457531,11.8817364 29.3359982,13.9363875 L29.3444251,13.9363875 L29.3444251,0 L28.6822326,0 L18.4304813,1.65307121 L18.4304813,3.84176235 L21.2583913,5.13703295 L21.2583913,32.7873986 L18.5634091,34.037809 L18.5634091,36.3159503" mask="url(#vr-logo-f)"/>
    <g>
      <mask id="vr-logo-h" fill="#fff">
        <use xlink:href="#vr-logo-g"/>
      </mask>
      <path fill="#FFF" fill-rule="nonzero" d="M10.8979055,36.9826377 C13.468115,36.9826377 16.2101248,36.310005 17.7723663,35.1320194 L17.7723663,32.0431517 C17.1229501,32.2552918 15.9994519,32.4544603 15.1129947,32.4544603 C12.7197504,32.4544603 12.0551114,31.1991855 12.0551114,28.7337664 L12.0551114,15.5078455 L17.4619296,15.5078455 L17.4619296,11.2034286 L12.0551114,11.2034286 L12.0551114,5.33106681 L3.81141266,6.49635094 L3.81141266,11.2034286 L0,11.9276776 L0,15.5078455 L3.81141266,15.5078455 L3.81141266,29.4507188 C3.81141266,34.0659142 5.97876114,36.9826377 10.8979055,36.9826377 Z" mask="url(#vr-logo-h)"/>
    </g>
    <path fill="#43C6E1" fill-rule="nonzero" d="M269.584933,14.8092696 L272.27611,13.5607509 L272.27611,11.2420733 L257.698904,11.2420733 L257.698904,13.5607509 L260.39008,14.8092696 L267.790816,36.2124475 L275.012139,36.2124475 L282.592286,14.8092696 L285.283463,13.5607509 L285.283463,11.2420733 L275.415816,11.2420733 L275.415816,13.5607509 L278.106992,14.8092696 L273.756257,28.5429754 L273.576845,28.5429754 L269.584933,14.8092696 Z M286.056836,12.1784623 L286.056836,14.45255 L288.837718,15.7456586 L288.837718,32.6452512 L286.191395,33.8937699 L286.191395,36.2124475 L300.634042,36.2124475 L300.634042,33.8937699 L297.180365,32.6452512 L297.180365,18.7777755 C298.61566,18.1089262 300.499483,17.8859764 302.74213,17.8859764 C303.459777,17.8859764 304.356836,17.9751563 304.850218,18.1089262 L304.850218,10.8407637 C304.581101,10.7515838 304.042865,10.7069938 303.594336,10.7069938 C300.858307,10.7069938 298.61566,12.490592 297.135512,15.7902486 L296.866395,15.7902486 L296.866395,10.528634 L296.148748,10.528634 L286.056836,12.1784623 Z"/>
  </g>
</svg>
